HIERARCHY
ROOT Hips
{
	OFFSET 0.000000 0.000000 0.000000 
	CHANNELS 6 Xposition Yposition Zposition Zrotation Yrotation Xrotation
	JOINT LeftUpLeg
	{
		OFFSET 1.363060 -1.794630 0.839290 
		CHANNELS 3 Zrotation Yrotation Xrotation
		JOINT LeftLeg
		{
			OFFSET 2.448110 -6.726130 0.000000 
			CHANNELS 3 Zrotation Yrotation Xrotation
			JOINT LeftFoot
			{
				OFFSET 2.562200 -7.039590 0.000000 
				CHANNELS 3 Zrotation Yrotation Xrotation
				JOINT LeftToeBase
				{
					OFFSET 0.157640 -0.433110 2.322550 
					CHANNELS 3 Zrotation Yrotation Xrotation
					End Site
					{
						OFFSET 0.000000 0.000000 0.000000 
					}
				}
			}
		}
	}
	JOINT RightUpLeg
	{
		OFFSET -1.305520 -1.794630 0.839290 
		CHANNELS 3 Zrotation Yrotation Xrotation
		JOINT RightLeg
		{
			OFFSET -2.542530 -6.985550 0.000000 
			CHANNELS 3 Zrotation Yrotation Xrotation
			JOINT RightFoot
			{
				OFFSET -2.568260 -7.056230 0.000000 
				CHANNELS 3 Zrotation Yrotation Xrotation
				JOINT RightToeBase
				{
					OFFSET -0.164730 -0.452590 2.363150 
					CHANNELS 3 Zrotation Yrotation Xrotation
					End Site
					{
						OFFSET 0.000000 0.000000 0.000000 
					}
				}
			}
		}
	}
	JOINT Spine
	{
		OFFSET 0.028270 2.035590 -0.193380 
		CHANNELS 3 Zrotation Yrotation Xrotation
		JOINT Spine1
		{
			OFFSET 0.056720 2.048850 -0.042750 
			CHANNELS 3 Zrotation Yrotation Xrotation
			JOINT Neck1
			{
				OFFSET -0.054170 1.746240 0.172020 
				CHANNELS 3 Zrotation Yrotation Xrotation
				JOINT Head
				{
					OFFSET 0.104070 1.761360 -0.123970 
					CHANNELS 3 Zrotation Yrotation Xrotation
					End Site
					{
						OFFSET 0.000000 0.000000 0.000000 
					}
				}
			}
			JOINT LeftArm
			{
				OFFSET 3.362410 1.200890 -0.311210 
				CHANNELS 3 Zrotation Yrotation Xrotation
				JOINT LeftForeArm
				{
					OFFSET 4.983000 -0.000000 -0.000000 
					CHANNELS 3 Zrotation Yrotation Xrotation
					JOINT LeftHand
					{
						OFFSET 3.483560 -0.000000 -0.000000 
						CHANNELS 3 Zrotation Yrotation Xrotation
						JOINT LeftHandIndex1
						{
							OFFSET 0.715260 -0.000000 -0.000000 
							CHANNELS 3 Zrotation Yrotation Xrotation
							End Site
							{
								OFFSET 0.000000 0.000000 0.000000 
							}
						}
					}
				}
			}
			JOINT RightArm
			{
				OFFSET -3.136600 1.374050 -0.404650 
				CHANNELS 3 Zrotation Yrotation Xrotation
				JOINT RightForeArm
				{
					OFFSET -5.241900 -0.000000 -0.000000 
					CHANNELS 3 Zrotation Yrotation Xrotation
					JOINT RightHand
					{
						OFFSET -3.444170 -0.000000 -0.000000 
						CHANNELS 3 Zrotation Yrotation Xrotation
						JOINT RightHandIndex1
						{
							OFFSET -0.622530 -0.000000 -0.000000 
							CHANNELS 3 Zrotation Yrotation Xrotation
							End Site
							{
								OFFSET 0.000000 0.000000 0.000000 
							}
						}
					}
				}
			}
		}
	}
}
MOTION
Frames: 6
Frame Time: 0.041667
61.420850 16.298695 -6.682222 3.035765 -85.404871 12.508207 -9.150928 1.178518 -49.259993 8.137601 18.739208 51.779947 -1.215197 5.723740 7.391370 0.297300 -3.506300 -9.691500 11.251051 -3.297847 -52.379516 -10.701858 -19.805906 59.118163 1.311795 -5.951658 2.099446 -0.000500 0.141000 -0.387300 0.951260 -1.089069 -2.366220 -1.633001 -0.737716 -6.238897 6.018757 -0.536448 -0.499380 0.446500 -0.653400 -3.851200 -63.897515 -11.520879 32.342787 19.266807 -28.292399 -10.175493 -2.045222 -4.798291 -27.250613 -7.125000 0.000000 0.000000 66.019421 13.678097 28.637091 -19.433716 28.356765 -9.521193 2.677994 1.958105 -10.046973 7.125000 0.000000 0.000000 
61.420850 16.301033 -6.681637 2.931577 -85.416701 12.611936 -9.207646 1.308628 -49.297874 8.135205 18.721168 51.771304 -1.187668 5.667141 7.460493 0.302400 -3.535400 -9.773100 11.249026 -3.287239 -52.368941 -10.699405 -19.807638 59.120280 1.276562 -5.883601 2.095880 -0.000200 0.097600 -0.268200 0.951497 -1.086619 -2.365726 -1.631382 -0.736987 -6.234159 6.020392 -0.526579 -0.501338 0.446200 -0.649300 -3.850700 -63.894818 -11.510022 32.355086 19.273483 -28.300082 -10.178320 -2.049546 -4.788467 -27.237756 -7.125000 0.000000 0.000000 66.016315 13.670208 28.668682 -19.453565 28.375865 -9.534018 2.682825 1.966262 -10.070429 7.125000 0.000000 0.000000 
61.420499 16.293199 -6.681403 3.041847 -85.411893 12.506835 -9.247034 1.356020 -49.362809 8.149818 18.727263 51.824930 -1.150112 5.585879 7.467092 0.301400 -3.529600 -9.757000 11.250641 -3.288150 -52.414814 -10.719612 -19.815781 59.169798 1.315283 -5.957636 2.062131 -0.000700 0.167500 -0.460200 0.951667 -1.089655 -2.363973 -1.633695 -0.738456 -6.214497 6.016591 -0.538331 -0.507703 0.438000 -0.657500 -3.852600 -63.895794 -11.523573 32.342544 19.281726 -28.306628 -10.186076 -2.041977 -4.793086 -27.227722 -7.125000 0.000000 0.000000 66.012993 13.698942 28.665752 -19.457856 28.375780 -9.536181 2.685189 1.963743 -10.077202 7.125000 0.000000 0.000000 
61.420616 16.295421 -6.681403 2.926701 -85.413727 12.622671 -9.234500 1.346917 -49.350570 8.149440 18.726801 51.817983 -1.164608 5.616269 7.458235 0.304400 -3.547300 -9.806500 11.245614 -3.274537 -52.403903 -10.718256 -19.819409 59.184604 1.228895 -5.789423 2.055896 0.000000 0.024300 -0.066700 0.952537 -1.084821 -2.365187 -1.627442 -0.736403 -6.229679 6.014345 -0.531900 -0.508185 0.435600 -0.654700 -3.857100 -63.900423 -11.512188 32.374102 19.278871 -28.305072 -10.178088 -2.045003 -4.775785 -27.241826 -7.125000 0.000000 0.000000 65.994265 13.680384 28.669273 -19.456862 28.376471 -9.535592 2.679117 1.961065 -10.084645 7.125000 0.000000 0.000000 
61.420616 16.295070 -6.681169 2.923976 -85.414957 12.627257 -9.246840 1.367676 -49.364901 8.152796 18.726747 51.829030 -1.157646 5.600909 7.459629 0.305400 -3.553100 -9.822600 11.240681 -3.268257 -52.407415 -10.722923 -19.823174 59.205297 1.193103 -5.719427 2.043695 -0.000000 -0.028400 0.078000 0.952957 -1.083935 -2.364896 -1.623005 -0.736079 -6.227663 6.015175 -0.536257 -0.507916 0.436600 -0.656600 -3.857200 -63.903690 -11.510540 32.388108 19.282277 -28.308213 -10.176952 -2.044266 -4.763816 -27.248363 -7.125000 0.000000 0.000000 65.982340 13.681312 28.673743 -19.461566 28.380359 -9.538708 2.678252 1.960039 -10.091867 7.125000 0.000000 0.000000 
61.420616 16.294953 -6.680818 2.941192 -85.415845 12.611505 -9.254245 1.378666 -49.370607 8.151649 18.725101 51.826352 -1.155182 5.596043 7.465080 0.305600 -3.554300 -9.826100 11.234560 -3.264699 -52.407312 -10.723909 -19.824662 59.213042 1.162981 -5.660603 2.042723 -0.000100 -0.076900 0.211100 0.953287 -1.083867 -2.364577 -1.617802 -0.735995 -6.224230 6.017814 -0.541199 -0.505407 0.440400 -0.658000 -3.854800 -63.906950 -11.509447 32.402624 19.286374 -28.311855 -10.176254 -2.042637 -4.751606 -27.257245 -7.125000 0.000000 0.000000 65.969259 13.683848 28.677531 -19.465752 28.383892 -9.541509 2.677259 1.958663 -10.098075 7.125000 0.000000 0.000000 
